# xmcd CD database file generated by Grip 2.95
# 
# Track frame offsets:
#       150
#       18940
#       37085
#       52822
#       83150
#       101680
#       128815
#       148992
#       165442
#       186052
#       220235
# 
# Disc length: 3050 seconds
# 
# Revision: 3
# Processed by: cddbd v1.4b41PL2 Copyright (c) Steve Scherf et al.
# Submitted via: Grip 2.95
# 
DISCID=920be80b
DTITLE=Various Artist - Gotta Get It Hits - Country
DYEAR=1900
DGENRE=
TTITLE0=Vince Gill - One
TTITLE1=Martina McBride - Safe In The Arms Of Love
TTITLE2=Alabama - How Do You Fall In Love
TTITLE3=Terry Clark - You're Easy On The Eyes
TTITLE4=Jennifer Day - The Fun Of Your Love
TTITLE5=Brad Paisley - Me Neither
TTITLE6=Lee Ann Womack - A Little Past Little Rock
TTITLE7=Rebecca Lynn Howard - Out Here In The Water
TTITLE8=Mark Wills - Almost Doesn't Count
TTITLE9=Mindy McCready - Guys Do It All The Time
TTITLE10=Data
EXTD=
EXTT0=
EXTT1=
EXTT2=
EXTT3=
EXTT4=
EXTT5=
EXTT6=
EXTT7=
EXTT8=
EXTT9=
EXTT10=
PLAYORDER=
